<?xml version="1.0" encoding="UTF-8" standalone="no"?>
<!-- Created with Inkscape (http://www.inkscape.org/) -->

<svg
   version="1.1"
   id="svg2"
   xml:space="preserve"
   width="170"
   height="43"
   viewBox="0 0 170 43"
   sodipodi:docname="carvana-logo.svg"
   inkscape:version="1.1.2 (1:1.1+202202050950+0a00cf5339)"
   xmlns:inkscape="http://www.inkscape.org/namespaces/inkscape"
   xmlns:sodipodi="http://sodipodi.sourceforge.net/DTD/sodipodi-0.dtd"
   xmlns="http://www.w3.org/2000/svg"
   xmlns:svg="http://www.w3.org/2000/svg"><defs
     id="defs6" /><sodipodi:namedview
     id="namedview4"
     pagecolor="#ffffff"
     bordercolor="#666666"
     borderopacity="1.0"
     inkscape:pageshadow="2"
     inkscape:pageopacity="0.0"
     inkscape:pagecheckerboard="true"
     showgrid="false"
     width="170px"
     inkscape:zoom="4.9158174"
     inkscape:cx="90.625823"
     inkscape:cy="18.715097"
     inkscape:window-width="1920"
     inkscape:window-height="1001"
     inkscape:window-x="2560"
     inkscape:window-y="0"
     inkscape:window-maximized="1"
     inkscape:current-layer="g10" /><g
     id="g8"
     inkscape:groupmode="layer"
     inkscape:label="ink_ext_XXXXXX"
     transform="matrix(1.3333333,0,0,-1.3333333,0,710.36)"><g
       id="g10"
       transform="matrix(0.0096163,0,0,0.0096163,51.510577,511.49776)"><path
         d="M 7322.9939,1131.0815 H 7103.4192 L 6585.357,-55.481482 h 258.6168 l 214.7113,500.159312 v 0 l 150.4503,352.14134 v 0 l 4.0591,8.1277 139.0899,-333.4298 -95.1604,-219.5895 h 187.0543 l 65.87,-157.773559 62.6277,-149.635493 h 270.8058 z m -3009.1043,0 -518.05,-1186.562982 h 258.6168 l 214.6991,500.159312 v 0 l 151.2671,361.10276 v 0 5.68989 l 139.0779,-334.26354 -95.1483,-217.95248 h 186.2254 l 65.882,-157.77721 62.6158,-149.645267 h 268.3922 L 4532.6599,1131.0815 Z M 6077.0585,399.12464 5516.7244,1123.7681 H 5293.0661 V -53.04367 h 250.4865 V 694.3452 l 578.2399,-747.38887 h 205.7524 V 1125.3783 H 6077.0585 Z M 3193.1972,308.86419 2872.7696,1122.1359 h -277.3271 l 15.456,-37.4108 474.1446,-1149.153163 h 209.8237 L 3782.8218,1122.1359 H 3512.0037 L 3193.1972,308.86419"
         style="fill:#676b70;fill-opacity:1;fill-rule:nonzero;stroke:none;stroke-width:1.21892"
         id="path12" /><path
         d="m 1573.1654,530.88662 v 487.95508 h 378.9841 c 86.3843,5.7666 172.2324,-17.4025 243.9775,-65.86893 54.4732,-41.89522 84.8728,-107.85909 81.3259,-176.48507 v 0 c 0.3169,-33.69074 -6.9115,-67.04017 -21.1361,-97.5837 -14.9803,-30.02544 -36.6893,-56.19427 -63.4443,-76.45381 -31.4723,-23.46407 -67.0522,-40.83358 -104.9119,-51.22725 -47.6106,-13.46044 -96.9033,-20.04134 -146.379,-19.53184 h -368.4162 m 482.2625,-91.88892 c 34.4465,5.10358 68.247,13.82125 100.8529,26.02013 44.1978,15.62766 85.2384,39.04296 121.1721,69.12572 34.6779,28.7066 62.4691,64.84492 81.338,105.72602 19.2344,43.52857 28.9492,90.66636 28.4616,138.26609 v 0 c 0.1828,43.13366 -7.8255,85.89554 -23.5859,126.04285 -15.4072,37.7156 -37.75,72.1974 -65.8823,101.66101 -41.7234,40.5044 -92.04,71.0723 -147.1959,89.4656 -63.8466,20.4547 -130.5942,30.34 -197.6223,29.2687 H 1464.999 V -53.04367 h 108.1664 v 479.82299 h 357.0315 l 365.9662,-479.82299 h 138.2612 L 2055.4279,439.80218 M 562.2725,1131.0815 3.5597426,-53.04367 H 117.40608 L 605.37333,978.17989 879.44567,399.12464 810.32122,251.92757 h 139.0657 L 1093.3404,-53.04367 h 110.5918 L 647.65732,1131.0815 H 566.33156 M -307.11906,203.95119 c -47.37059,-49.5232 -102.26432,-91.24655 -162.65287,-123.619646 -66.4161,-33.800556 -140.20418,-50.560602 -214.70531,-48.79403 -65.23984,0.01413 -129.67034,14.455444 -188.67422,42.286255 -55.89816,24.643972 -106.24526,60.336161 -148.02104,104.911791 -43.514,47.26576 -77.4778,102.50808 -100.0326,162.64799 -24.0349,62.54118 -36.1716,129.00968 -35.7812,196.00231 v 0 c -0.3095,66.72081 11.8273,132.92361 35.7812,195.19784 22.3977,60.04117 56.0797,115.24938 99.2233,162.64798 41.82318,45.49104 92.46048,82.01088 148.83034,107.35082 58.70773,26.7442 122.53968,40.3326 187.05062,39.8475 40.75312,0.1804 81.39653,-4.1808 121.17696,-13.0179 34.23436,-8.0461 67.50212,-19.7684 99.2231,-34.97195 28.9772,-13.89437 56.26499,-31.08223 81.31974,-51.22719 25.201,-19.3222 49.36107,-39.94863 72.38146,-61.80374 l 20.33631,-18.70663 76.4441,81.32461 -20.33145,18.71151 c -28.46283,26.0116 -57.74598,50.41299 -87.01816,72.36319 -30.72146,22.8315 -63.69303,42.4571 -98.40887,58.5699 -38.30068,16.9698 -78.40531,29.5258 -119.55337,37.4097 -48.11777,10.1901 -97.1985,15.1035 -146.38893,14.627 -80.7712,0.9629 -160.75746,-15.9788 -234.22137,-49.5989 -68.7308,-31.5819 -130.41378,-76.6585 -181.35578,-132.56641 -52.2609,-56.12238 -93.1373,-121.85709 -120.3677,-193.56447 -28.5301,-74.47676 -42.8761,-153.64392 -42.2857,-233.39735 v 0 c -0.3713,-80.60544 14.246,-160.57706 43.1,-235.85952 26.4257,-72.37779 67.0784,-138.74633 119.5534,-195.17345 52.1086,-54.688927 114.22548,-98.8653697 182.98428,-130.128507 72.74959,-32.082136 151.46452,-48.442255 230.96928,-47.989919 48.45176,-0.219031 96.77066,5.242276 143.9511,16.274436 42.51931,9.917908 83.9331,24.083011 123.61479,42.295277 37.03907,17.8313463 72.19251,39.357455 104.91178,64.235693 31.32116,25.12058 60.9273,52.28891 88.65268,81.32461 l 19.51724,19.52575 -81.33436,71.56356 -19.51722,-18.69811"
         style="fill:#676b70;fill-opacity:1;fill-rule:nonzero;stroke:none;stroke-width:1.21892"
         id="path14" /><path
         d="m -1987.3159,532.47751 c 0,-908.57394 -736.5367,-1645.11961 -1645.1107,-1645.11961 -908.5739,0 -1645.1197,736.54567 -1645.1197,1645.11961 0,908.57399 736.5458,1645.11969 1645.1197,1645.11969 908.0497,0.5243 1644.5955,-735.1627 1645.1107,-1643.22141 0,-0.63276 0,-1.26552 0,-1.89828"
         style="fill:#46b4db;fill-opacity:1;fill-rule:nonzero;stroke:none;stroke-width:0.903938"
         id="path16" /><path
         d="m -3623.8754,1169.8163 c -95.3563,-0.7594 -190.6312,5.9116 -284.957,19.9498 -59.4248,4.2484 -116.8609,23.1769 -167.165,55.0949 -10.9014,10.5942 -17.6358,24.7499 -19.0007,39.8909 1.1118,15.2042 7.8913,29.4502 19.0007,39.8905 10.1241,9.3468 21.6672,17.0484 34.1959,22.7973 32.4242,13.1253 66.1773,22.6799 100.6804,28.4921 103.8081,17.907 209.0536,26.1689 314.3894,24.6956 95.338,1.0486 190.604,-5.2971 284.957,-18.9916 59.2892,-4.8362 116.2823,-25.1386 165.2759,-58.8916 12.0673,-9.8167 19.3259,-24.3429 19.9407,-39.8907 -0.8408,-15.4844 -8.0631,-29.9293 -19.9407,-39.8907 -9.9797,-8.6055 -21.1794,-15.6471 -33.247,-20.899 -32.3338,-13.6223 -66.1139,-23.4934 -100.6895,-29.4503 -103.5549,-17.4007 -208.4387,-25.672 -313.4401,-24.6955 m 0,170.0214 c -91.5326,0.4792 -182.9749,-5.8665 -273.5584,-18.9917 -42.2681,-4.9265 -83.5689,-16.1262 -122.5285,-33.2467 h 7.602 c 27.8233,-11.3626 56.8126,-19.6427 86.4345,-24.6957 99.7945,-16.75 200.8638,-24.6955 302.0504,-23.7464 91.2253,-0.9221 182.3782,5.4236 272.6002,18.9917 42.1778,4.8722 83.4334,15.7556 122.5287,32.2977 h -7.5931 c -27.5339,11.254 -56.1977,19.534 -85.4852,24.6956 -99.8037,16.6596 -200.8729,24.6052 -302.0506,23.7463"
         style="fill:#f9aa3b;fill-opacity:1;fill-rule:nonzero;stroke:none;stroke-width:0.903938"
         id="path18" /><path
         d="m -2891.5601,311.16669 c 0,0 -4.7456,-23.74644 -42.7381,-33.24679 -76.2019,-15.89122 -153.2715,-27.30795 -230.8021,-34.18691 0,0 9.4913,116.8248 75.0267,151.02072 35.5971,23.56563 74.2674,42.10538 114.9356,55.0859 29.4141,5.35132 58.7198,-9.88905 71.2392,-37.04332 11.7331,-33.82531 15.6291,-69.87431 11.3986,-105.42615 z m -345.7377,-74.08667 c -118.732,-9.50037 -289.7025,-10.44951 -393.2305,-10.44951 -103.5279,0 -274.4984,0 -393.2305,10.44951 0,0 -33.247,72.18839 18.0425,74.08667 6.653,0 159.5811,5.6948 379.9426,5.6948 220.3619,0 368.535,-5.6948 375.179,-5.6948 45.5945,-5.6948 12.3569,-77.8832 12.3569,-77.8832 z m -1089.4607,40.83988 c -38.9416,9.50035 -42.7381,33.24679 -42.7381,33.24679 -3.9231,34.37672 0.3073,69.19635 12.3388,101.6296 11.9048,27.25369 41.0838,42.63871 70.29,37.04332 40.7495,-12.78164 79.447,-31.33044 114.9356,-55.0859 66.4845,-34.19592 75.0358,-151.02072 75.0358,-151.02072 -77.2233,6.86993 -153.9765,18.28665 -229.8621,34.18691 z m 189.9714,417.93515 c 36.5461,86.64234 81.7249,169.37966 134.8763,246.95544 0,0 114.9266,5.6949 267.8546,6.644 v -11.3895 -26.603 c 0,-9.9613 8.0812,-18.0425 18.0426,-18.0425 v 0 h 177.6235 c 9.9525,-0.5243 18.4495,7.1139 18.9647,17.0664 0.019,0.3253 0.027,0.6507 0.027,0.9761 v 26.603 l -4.7456,11.3895 c 152.9279,0 266.9053,-6.644 266.9053,-6.644 54.5796,-77.16901 101.3583,-159.58091 139.622,-246.00631 10.4495,-28.50112 -13.2968,-28.50112 -13.2968,-28.50112 h -997.3315 c 0,0 -23.7464,-0.94914 -8.5422,27.55199 z m 1227.1845,-195.66617 c -35.0907,44.772 -66.8371,92.07502 -94.9857,141.52035 h 7.6021 c 0,0 175.7254,9.50037 144.3768,70.29014 0,0 -34.1959,73.13751 -163.3685,73.13751 h -18.0425 c -5.7039,0 -14.2552,0 -17.1025,-47.49284 -39.6466,93.89191 -101.9822,176.45755 -181.4202,240.31165 -18.8831,10.4676 -39.4658,17.5455 -60.7897,20.8901 -37.0524,6.65281 -317.2455,9.50031 -340.043,9.50031 v 0 c -22.7972,0 -302.9995,0 -340.043,-9.50031 -21.3779,-3.1639 -41.9787,-10.2508 -60.7895,-20.8901 -79.438,-63.8541 -141.7735,-146.41974 -181.4202,-240.31165 0,44.64544 -11.3987,47.49284 -18.0427,47.49284 h -17.0933 c -129.1818,0 -163.3776,-73.13751 -163.3776,-73.13751 -31.3395,-60.78977 144.3769,-70.29014 144.3769,-70.29014 h 7.5929 c -28.1396,-49.44533 -59.8857,-96.74835 -94.9855,-141.52035 -19.4257,-22.44472 -36.3203,-46.97758 -50.3313,-73.14655 -9.5907,-26.78364 -14.1014,-55.13109 -13.306,-83.57797 0,-46.54372 6.653,-249.811989 6.653,-249.811989 V -161.85438 c -1.6542,-13.00764 7.5479,-24.89442 20.5555,-26.55765 0.1085,-0.009 0.226,-0.0181 0.3435,-0.0361 h 202.3102 c 13.0799,0.94912 22.9147,12.32064 21.9657,25.40964 -0.027,0.39774 -0.063,0.79547 -0.1176,1.18416 v 31.34853 h 1071.409 v -31.34852 c -1.5998,-13.00765 7.6474,-24.86731 20.664,-26.47631 0.3978,-0.0452 0.7956,-0.0814 1.1843,-0.1175 h 201.37 c 13.0799,0.94912 22.9146,12.32064 21.9656,25.40966 -0.027,0.39772 -0.063,0.79545 -0.1175,1.18415 V 93.652371 c 0,0 4.7457,203.268269 6.644,249.811989 1.2744,28.55535 -3.5887,57.05646 -14.246,83.57797 -13.4235,26.30456 -30.0107,50.86452 -49.3912,73.14656"
         style="fill:#ffffff;fill-opacity:1;fill-rule:nonzero;stroke:none;stroke-width:0.903938"
         id="path20" /></g></g></svg>
