<?xml version="1.0" encoding="UTF-8" standalone="no"?>
<svg
   width="135pt"
   height="31pt"
   viewBox="0 0 135 31"
   version="1.1"
   id="svg7"
   sodipodi:docname="deva-curl-logo.svg"
   inkscape:version="1.1.2 (1:1.1+202202050950+0a00cf5339)"
   xmlns:inkscape="http://www.inkscape.org/namespaces/inkscape"
   xmlns:sodipodi="http://sodipodi.sourceforge.net/DTD/sodipodi-0.dtd"
   xmlns="http://www.w3.org/2000/svg"
   xmlns:svg="http://www.w3.org/2000/svg">
  <defs
     id="defs11" />
  <sodipodi:namedview
     id="namedview9"
     pagecolor="#ffffff"
     bordercolor="#666666"
     borderopacity="1.0"
     inkscape:pageshadow="2"
     inkscape:pageopacity="0.0"
     inkscape:pagecheckerboard="true"
     inkscape:document-units="pt"
     showgrid="false"
     inkscape:zoom="4.46"
     inkscape:cx="98.542601"
     inkscape:cy="7.8475336"
     inkscape:window-width="1920"
     inkscape:window-height="1001"
     inkscape:window-x="2560"
     inkscape:window-y="0"
     inkscape:window-maximized="1"
     inkscape:current-layer="svg7" />
  <g
     id="surface1"
     transform="matrix(0.15502507,0,0,0.15502507,-2.1504034,-7.6038373)">
    <path
       style="fill:#c2d442;fill-opacity:1;fill-rule:nonzero;stroke:none"
       d="M 850.26172,54.011719 C 859.5,53.988281 868.75,53.988281 878,54.019531 877.98828,105.67969 878.01172,157.33984 877.98828,209 c -9.25,0 -18.48828,0.0117 -27.73828,-0.0117 0.0195,-51.66016 0.0117,-103.3164 0.0117,-154.976561 m -302.30078,9.886719 c 14.21875,-4.648438 29.83984,-4.378907 44.10937,-0.07031 13.55078,4.101563 25.62891,12.84375 33.64063,24.53125 4.3789,6.289063 7.51953,13.351562 9.84765,20.628902 -10.05859,0.0234 -20.10937,0.0312 -30.16797,-0.008 -4.35156,-8.66016 -11.53906,-16.011717 -20.51171,-19.820311 -9.64844,-4.140625 -21.00782,-4.28125 -30.60938,0.08984 -11.76953,5.359375 -20.39062,16.300781 -24.39844,28.441411 -5.42187,15.78906 -3.51172,33.94921 5.27735,48.16796 4.66015,7.51172 11.42187,13.85938 19.5625,17.44141 10.46093,4.59766 23.02734,3.91016 32.98828,-1.67187 7.67187,-4.12891 13.74219,-10.85938 17.62109,-18.60938 9.98828,-0.0312 19.98828,-0.0586 29.98047,0.0195 -4.22266,13.53125 -12.15234,26.1211 -23.51953,34.75 -14.78125,11.58203 -34.51172,15.67969 -52.90234,13.04297 -16.75,-2.45312 -32.28907,-11.63281 -42.82032,-24.84375 -21.6875,-26.76953 -22.73047,-67.89844 -2.89843,-95.96875 8.41015,-12.128906 20.76953,-21.488281 34.80078,-26.121093 m 251.21875,47.980473 c 8.1914,-10.16016 22.01953,-14.597661 34.73047,-12.449223 0.21093,9.000003 0.0195,18.000003 0.10156,27.000003 -9.26172,-1.19141 -20.10156,-0.57813 -26.8125,6.78906 -6.8711,7.45312 -6.83985,18.28125 -6.69922,27.79297 0.0117,15.98828 -0.0117,31.97656 0.0117,47.96875 -9.25,0.0312 -18.5,0.0312 -27.75,0.008 -0.0312,-35.82812 -0.0117,-71.66016 -0.0117,-107.47656 8.82812,-0.0117 17.66016,-0.0234 26.5,0 0,3.44922 0.0195,6.91016 -0.0703,10.36719 M 651.5,101.51172 c 9.32031,-0.0234 18.64844,0 27.98047,-0.0117 0.0391,21.17188 0.008,42.35156 0.008,63.51953 0.0117,6.76953 2.77344,14.07031 8.83984,17.62109 8.96094,5 21.78125,3.03125 27.83204,-5.60937 2.42968,-3.5 3.91015,-7.72266 3.83984,-12 0,-21.17969 0,-42.35156 0,-63.51953 9.32812,-0.0117 18.67187,-0.0234 28,0 -0.0117,35.82812 0.0117,71.66015 -0.0117,107.47656 -8.91016,0.0117 -17.82812,0.0234 -26.73828,0 0.0117,-3.01953 0,-6.02734 0.0312,-9.04687 -6.79297,7.10937 -16.30078,11.75781 -26.23047,11.58984 -11.51953,0.5 -23.37891,-3.76172 -31.25,-12.33984 -8.60937,-9.1211 -12.12109,-21.94141 -12.22266,-34.24219 -0.17968,-21.14844 -0.0273,-42.28906 -0.0781,-63.4375"
       id="path2" />
    <path
       style="fill:#262323;fill-opacity:1;fill-rule:nonzero;stroke:none"
       d="m 21.011719,64.25 c 18.707031,0.03906 37.417969,-0.07031 56.128906,0.05078 15.609375,0.347657 31.558595,5.621094 42.808595,16.75 11.69922,11.160157 17.6289,27.09766 19.44922,42.89844 1.86328,17.97265 0.1914,36.89062 -8.32813,53.10156 C 124.62109,189.21094 114,199.21094 101.12891,204.26172 93.808594,207.21094 85.941406,208.78906 78.050781,209 59.03125,209 40.019531,209 21,209 21,160.75 20.988281,112.5 21.011719,64.25 M 48.75,90.25 c 0,31 0,62 0.01172,93 9.449219,-0.0391 18.898437,0.0781 28.347656,-0.0586 9.78125,-0.33204 19.722656,-4.41016 25.679684,-12.41016 8.08203,-10.75 9.85157,-24.80078 9.44141,-37.89063 -0.46875,-11.21874 -2.83203,-23.12109 -10.37891,-31.85156 C 95.511719,93.640625 85.570313,90.230469 76.011719,90.238281 66.929688,90.261719 57.839844,90.25 48.75,90.25 m 137.62109,13.25 c 11.98047,-5.429687 25.92969,-5.910156 38.48828,-2.26172 13.64063,3.91016 25.35157,13.86328 31.5,26.63281 5.90235,11.8086 7.23047,25.36719 6.08204,38.39063 -27.07032,0 -54.13282,-0.0312 -81.20313,0.008 2.36328,8.30078 8.21094,15.85156 16.43359,18.96094 11.61719,4.78906 26.8086,0.84765 33.09766,-10.48047 9.89063,0.0117 19.78125,-0.0391 29.67188,0.0195 -3.73047,13.35938 -13.11329,25.07031 -25.67188,31.08984 -13.62109,6.47266 -29.84766,7.60157 -44.16797,2.83985 C 176.23047,203.84 164.17187,192.73063 158,178.89078 c -5.92969,-13.03125 -6.64063,-28.33203 -1.98828,-41.87109 4.86719,-14.75 16.13672,-27.25 30.35937,-33.51953 m 7.70703,23.66016 c -6.07812,3.57812 -10.20703,9.73828 -12.44921,16.32812 17.73046,0.0312 35.46093,-0.008 53.1914,0.0234 -1.55859,-5.25 -4.33984,-10.26172 -8.60156,-13.77344 -8.75,-7.44922 -22.33984,-8.67969 -32.14063,-2.57812 M 399.96875,106.922 c 12.80078,-7.761724 28.42187,-9.082036 43.01953,-7.363286 9.30078,1.203126 18.71094,4.382816 25.62109,10.960936 6.8125,6.53125 10.37891,16.08203 10.16016,25.44922 -0.0508,17.33203 0.0117,34.67187 -0.0312,52.01172 -0.0977,7.12109 1.04297,14.25781 3.28125,21.01953 -8.57031,-0.0117 -17.14062,0.0117 -25.69922,-0.0117 -1.16015,-3.07031 -2.01172,-6.25781 -2.51953,-9.5 -7.66016,7.5625 -18.41016,11.14063 -29.01172,11.61328 -12.78906,0.69922 -26.46875,-1.95312 -36.57812,-10.25 -7.60938,-6.17969 -11.66016,-16.16015 -10.99219,-25.89062 C 377,165.73828 381.75,156.5 389.82031,151.87891 c 13.12891,-7.9375 28.98047,-7.48829 43.66797,-9.64063 5.55078,-1.01953 11.72266,-1.75 16.08984,-5.66797 3.22266,-2.75 2.83204,-8.17187 -0.47656,-10.6914 -5.32031,-4.32032 -12.64062,-4.84766 -19.23047,-4.57813 -8.60937,0.57813 -18.17187,4.71875 -21.14062,13.48047 -9.25,-0.0703 -18.49219,-0.0117 -27.74219,-0.043 1.5,-11.6289 8.95313,-21.9375 18.98047,-27.8164 M 421.87109,165 c -5.01953,0.87891 -10.53125,1.82031 -14.32031,5.53125 -3.22266,3.01953 -3.17969,8.76953 0.26953,11.60937 5.55078,4.60938 13.28125,4.6211 20.1211,4.25782 7.95703,-0.61719 16.83984,-2.6875 21.95703,-9.36719 4.17968,-5.58984 2.89062,-12.94141 3.10156,-19.44141 -9.44141,5.44141 -20.60156,5.89844 -31.12891,7.41016 m -160.25,-63.48828 c 9.70703,-0.0117 19.41016,-0.0508 29.11719,0.0195 8.93359,26.57812 17.80078,53.16797 26.65234,79.76953 8.82813,-26.64062 17.85938,-53.21094 26.82813,-79.8125 9.5625,0.0312 19.13281,-0.0391 28.70312,0.043 -13.51171,35.82812 -27.0625,71.62891 -40.55078,107.45703 -10,0.0234 -20,0.0117 -30,0 -13.57031,-35.82812 -27.22265,-71.62891 -40.75,-107.47656 m -96.13281,117.75 c 30.33984,-0.0312 60.67188,0 91.01172,-0.0117 0.0117,8.58203 0,17.16016 0,25.75 -30.32813,0 -60.67188,0 -91,0 -0.0117,-8.58203 0.0117,-17.16016 -0.0117,-25.73828"
       id="path4" />
  </g>
</svg>
