<?xml version="1.0" encoding="UTF-8" standalone="no"?>
<svg
   viewBox="0 0 70 29.6"
   height="29.6"
   width="70"
   xml:space="preserve"
   id="svg2"
   version="1.1"
   sodipodi:docname="fox_logo.svg"
   inkscape:version="1.1.2 (1:1.1+202202050950+0a00cf5339)"
   xmlns:inkscape="http://www.inkscape.org/namespaces/inkscape"
   xmlns:sodipodi="http://sodipodi.sourceforge.net/DTD/sodipodi-0.dtd"
   xmlns="http://www.w3.org/2000/svg"
   xmlns:svg="http://www.w3.org/2000/svg"
   xmlns:rdf="http://www.w3.org/1999/02/22-rdf-syntax-ns#"
   xmlns:cc="http://creativecommons.org/ns#"
   xmlns:dc="http://purl.org/dc/elements/1.1/"><sodipodi:namedview
     id="namedview12"
     pagecolor="#ffffff"
     bordercolor="#666666"
     borderopacity="1.0"
     inkscape:pageshadow="2"
     inkscape:pageopacity="0.0"
     inkscape:pagecheckerboard="0"
     showgrid="false"
     height="29.5px"
     inkscape:zoom="16.725"
     inkscape:cx="27.593423"
     inkscape:cy="17.638266"
     inkscape:window-width="1920"
     inkscape:window-height="1001"
     inkscape:window-x="2560"
     inkscape:window-y="0"
     inkscape:window-maximized="1"
     inkscape:current-layer="svg2" /><metadata
     id="metadata8"><rdf:RDF><cc:Work
         rdf:about=""><dc:format>image/svg+xml</dc:format><dc:type
           rdf:resource="http://purl.org/dc/dcmitype/StillImage" /></cc:Work></rdf:RDF></metadata><defs
     id="defs6"><clipPath
       id="clipPath18"
       clipPathUnits="userSpaceOnUse"><path
         id="path16"
         d="M 0,25 H 60 V 0 H 0 Z" /></clipPath></defs><g
     transform="matrix(1.1828586,0,0,-1.1828586,0,29.571495)"
     id="g10"
     style="fill:#002985;fill-opacity:1"><g
       id="g12"
       style="fill:#002985;fill-opacity:1"><g
         clip-path="url(#clipPath18)"
         id="g14"
         style="fill:#002985;fill-opacity:1"><g
           transform="translate(28.1735,19.8528)"
           id="g20"
           style="fill:#002985;fill-opacity:1"><path
             id="path22"
             style="fill:#002985;fill-opacity:1;fill-rule:evenodd;stroke:none"
             d="m 0,0 c -1.141,0 -2.063,-1.048 -2.063,-2.219 l -0.003,-10.237 c 0,-1.171 0.925,-2.121 2.065,-2.121 1.141,0 2.155,0.92 2.155,2.091 V -2.219 C 2.154,-1.048 1.14,0 0,0 m -0.035,5.139 c 6.902,0 12.496,-5.594 12.496,-12.496 0,-6.901 -5.594,-12.496 -12.496,-12.496 -6.901,0 -12.496,5.595 -12.496,12.496 0,6.902 5.595,12.496 12.496,12.496 m 16.868,0.008 3.036,-5.35 3.036,5.35 h 8.113 l -7.08,-12.522 7.08,-12.478 h -8.154 l -2.995,5.282 -2.995,-5.282 H 8.719 L 15.8,-7.375 8.719,5.147 Z m -29.462,0 0.458,-6.819 h -8.435 v -3.271 h 6.879 v -6.841 h -6.879 v -8.069 h -7.568 v 25 z" /></g></g></g></g></svg>
