<svg xmlns="http://www.w3.org/2000/svg" viewBox="0 0 167.59 162.43"><g class="message_two_reactions"><rect x="82.94" y="135.25" width="18.87" height="10.27" rx="5.13" fill="#fff"/><rect x="86.24" y="137.14" width="6.49" height="6.49" rx=".69" fill="#2eb67d"/><path d="M88.9 141.94a.4.4 0 0 1-.32-.16l-.64-.78a.42.42 0 0 1 .06-.59.42.42 0 0 1 .55 0l.32.39 1.89-2.29a.41.41 0 0 1 .59 0 .41.41 0 0 1 0 .5l-2.21 2.68a.4.4 0 0 1-.24.25Z" fill="#fff"/><path d="M96.55 137.91a2 2 0 0 1 .6.09 1.43 1.43 0 0 1 .46.27 1.14 1.14 0 0 1 .39.89 1.34 1.34 0 0 1 0 .4.89.89 0 0 1-.15.31 1.26 1.26 0 0 1-.24.22 1.87 1.87 0 0 1-.32.15 1.29 1.29 0 0 1 .65.42 1.09 1.09 0 0 1 .21.7 1.41 1.41 0 0 1-.13.64 1.47 1.47 0 0 1-.36.46 1.62 1.62 0 0 1-.53.29 2.24 2.24 0 0 1-.63.1 2.3 2.3 0 0 1-.64-.09 1.4 1.4 0 0 1-.47-.24 1.49 1.49 0 0 1-.34-.41 2.61 2.61 0 0 1-.24-.54l.36-.15a.61.61 0 0 1 .19 0 .43.43 0 0 1 .16 0 .27.27 0 0 1 .1.11 1.76 1.76 0 0 0 .14.23.55.55 0 0 0 .17.2 1.14 1.14 0 0 0 .23.15 1 1 0 0 0 .33 0 .89.89 0 0 0 .36-.07.71.71 0 0 0 .27-.18.61.61 0 0 0 .15-.24.62.62 0 0 0 0-.27 1.71 1.71 0 0 0 0-.32.56.56 0 0 0-.16-.24.84.84 0 0 0-.33-.16 2.32 2.32 0 0 0-.59-.05v-.6a1.77 1.77 0 0 0 .51 0 .94.94 0 0 0 .32-.15.53.53 0 0 0 .16-.23.93.93 0 0 0 .05-.29.68.68 0 0 0-.19-.52.68.68 0 0 0-.51-.18.78.78 0 0 0-.49.16.8.8 0 0 0-.27.4.42.42 0 0 1-.11.18.28.28 0 0 1-.18.06h-.12l-.43-.08a1.88 1.88 0 0 1 .19-.61 1.69 1.69 0 0 1 .36-.44 1.41 1.41 0 0 1 .5-.26 1.86 1.86 0 0 1 .57-.11Z"/></g><g class="message_two"><path d="M92.96 110.43h54.93a10 10 0 0 1 10 10 10 10 0 0 1-10 10H92.96a10 10 0 0 1-10-10 10 10 0 0 1 10-10Z" fill="#fff"/><path d="M92.91 115h55.44a1.91 1.91 0 0 1 1.91 1.9 1.91 1.91 0 0 1-1.91 1.91H92.91A1.91 1.91 0 0 1 91 116.9a1.91 1.91 0 0 1 1.91-1.9ZM92.91 121.91h43.54a1.91 1.91 0 0 1 1.91 1.91 1.91 1.91 0 0 1-1.91 1.9H92.91a1.91 1.91 0 0 1-1.91-1.9 1.91 1.91 0 0 1 1.91-1.91Z" fill="#ebeaeb"/></g><g class="avatar_three"><rect x="16.14" y="97.7" width="56.56" height="56.56" rx="8.18" fill="#f2606a"/><path d="M62.72 154.26h2.08a7.55 7.55 0 0 0 5.59-2.49l-2.42-10.89-5.37 1.08-1.44 2.61Z" fill="#ce9d77"/><path opacity=".4" d="m61.16 144.57 1.56 9.69h.81l-2.37-9.69z"/><path d="M50.55 117.93h2.39a16.58 16.58 0 0 1 9.94 3.31 16.57 16.57 0 0 1 5.43 7.19c1.36 3.45 2.85 8.19 2.61 11.83l-8.32 1.68.12 12.3H26.08l3.24-10.75-11.39-1.69 3.46-11.49a16.82 16.82 0 0 1 9.66-10.68 16.75 16.75 0 0 1 5.07-1.2l5.82-.48Z" fill="#ffd57e"/><path d="M62.6 131.65v10.31l1.44-.29s.04-6.31-1.44-10.02ZM29.32 143.51l3.67-10.34s-2.32 9.18-2.32 10.34 1.62 5.86-.77 7.64l-2.92.25Z" opacity=".2"/><path d="m19.06 141.99-2.71 14.13a5.32 5.32 0 0 0 6.85 6.05l24.5-7.91h10.95s0-6.7-12-4.34l-19.67 1.51 2.34-7.89Z" fill="#ce9d77"/><path d="M26.98 151.43s-3.47.4-4.79.59c0 0 4.46-1.55 5.16-1.69ZM67.97 140.88l-5.37 1.09.01 1.18 5.54-1.44-.18-.83zM19.06 142l9.61 3.69.65-2.18L19.06 142z" opacity=".4"/><path d="m23.24 161.16 24.46-6.9-24.5 7.91a5.31 5.31 0 0 1-6.85-6.05s.2 6.2 6.89 5.04Z" fill="#d8b192"/><path d="M45.32 125.62h.31a7.87 7.87 0 0 0 7.92-7.68l-8.59-.37-7.47.73a7.91 7.91 0 0 0 7.83 7.32Z" fill="#fff"/><path d="M33.71 101.05c0 6.3 5.58 11.09 11.88 11.09s9.77-5 9.78-11.3c0-5.52-3-11.44-10.56-11.12-8.2.36-11.1 5.04-11.1 11.33Z"/><path d="M39.55 103.74v-1.06l1-.77a1.32 1.32 0 0 0 .51-1l.17-2.48a.94.94 0 0 1 .93-.87l12.12.11 1.07 3.12a3.68 3.68 0 0 1 .15 1.32l-.13 1.61a4.22 4.22 0 0 0 0 .87l.11.58a8.89 8.89 0 0 1-.19 3.94l-.51 1.82a12.57 12.57 0 0 1-.6 1.69l-.78 1.8a3.41 3.41 0 0 1-1.74 1.88v1.13a6.23 6.23 0 0 1-5.9 6.27c-3.23.12-6.37-3-6.72-6.18l-.89-8.09Z" fill="#ce9d77"/><path d="M49.34 108.99s-.41.11-.53-.13.75-.6 1.14-.81a1.43 1.43 0 0 1 1.39 0c.53.27.89-.23 1.3-.18s.3.88 0 1-.27.29-.73.3a23.72 23.72 0 0 0-2.57-.18Z" opacity=".4"/><path d="M49.55 108.84s.5-.6 1.08-.44c.86.24.17.53-1.08.44ZM51.96 108.86s.26-.49.56-.49.18.5-.56.49Z"/><path d="m38.32 109.93-.32-5.78c-1.16.06-2.42 1-2.35 2.15l.46 1.65a2.09 2.09 0 0 0 2.19 2Z" fill="#ce9d77"/><path d="m43.43 101.43.33-.2a1.93 1.93 0 0 1 1.24-.28l3.95.46a.25.25 0 0 1 .23.27.35.35 0 0 1-.06.14l-.28.37a1 1 0 0 1-.88.37l-3.3-.39-1.1-.13a.33.33 0 0 1-.13-.61ZM55.28 101.43l-.39-.32a.46.46 0 0 0-.36-.09l-2.91.48c-.13 0-.19.23-.11.37l.21.34a.59.59 0 0 0 .6.34l2.22-.37.57-.1a.37.37 0 0 0 .3-.43.38.38 0 0 0-.13-.22Z"/><path d="M42.55 112.78a48 48 0 0 0 4.58 2.72 10.28 10.28 0 0 0 4.64.85l-.11 1.08a6.31 6.31 0 0 1-1.61 4.22 16.25 16.25 0 0 1-8.62-7.88l-.88-2.44ZM36.49 106.43c0-2.21 1.51-.83 1.51-.83l-1.18.65a3.16 3.16 0 0 0 1.29 2.75c-1.62-.16-1.62-2.57-1.62-2.57Z" opacity=".4"/><path d="M52.68 111.28s0-.31-.57-.37c-.32 0-.5.35-1.24 0a2.06 2.06 0 0 0-2.36.3c-.15.34.21.66.35.73a5.83 5.83 0 0 0 2.37.43c.91.06 1.52-.67 1.45-1.09Z" fill="#7c5e47"/><path d="M48.2 111.23s3 .9 4.8-.06" fill="none" stroke="#3e2f24" stroke-linecap="round" stroke-linejoin="round" stroke-width=".25"/><path d="M54.55 104.34a1.31 1.31 0 0 0-1.8-.39 1.38 1.38 0 0 0-.52.67" fill="none" stroke="#000" stroke-linecap="round" stroke-linejoin="round" stroke-width=".5"/><circle cx="53.47" cy="104.45" r=".6"/><path d="M45.49 104.36s1.66-1.66 2.62.25" fill="none" stroke="#000" stroke-linecap="round" stroke-linejoin="round" stroke-width=".5"/><circle cx="46.93" cy="104.39" r=".69"/></g><g class="avatar_two"><rect x="105.06" y="42.85" width="54.76" height="54.76" rx="7.92" fill="#ffa100"/><path d="M152.6 50.56c0 .54-.64 1-.65 1.55s.6 1.12.55 1.63-.75.94-.83 1.44.44 1.2.31 1.69-.9.79-1.07 1.27.21 1.24 0 1.7-1.05.55-1.34 1-.09 1.25-.44 1.63-1.15.24-1.55.57-.4 1.16-.84 1.44-1.18-.07-1.65.16-.65 1-1.14 1.2-1.16-.31-1.67-.17-.81.89-1.32 1-1.11-.47-1.64-.41-.91.77-1.44.81-1.06-.6-1.59-.58-1 .67-1.51.67-1-.69-1.54-.71-1.06.58-1.56.53-1-.78-1.46-.86-1.13.46-1.61.34-.87-.89-1.35-1-1.18.29-1.65.1-.71-1-1.16-1.25-1.22 0-1.65-.23-.48-1.13-.88-1.46-1.21-.23-1.56-.61-.21-1.21-.52-1.63-1.12-.51-1.38-1 .08-1.21-.13-1.69-1-.75-1.15-1.26.32-1.15.21-1.67-.85-.91-.93-1.43.51-1.08.47-1.61-.72-1-.73-1.55.65-1.06.68-1.6-.54-1.18-.46-1.72.82-.92.94-1.45-.35-1.25-.18-1.77 1-.77 1.17-1.26-.15-1.29.09-1.77 1.07-.6 1.35-1.06 0-1.28.36-1.71 1.16-.43 1.51-.83.24-1.26.62-1.63 1.21-.23 1.62-.56.45-1.2.89-1.49 1.23 0 1.7-.27.65-1.09 1.13-1.3 1.23.23 1.74.07.84-.94 1.36-1 1.17.47 1.7.41 1-.73 1.56-.72 1.06.7 1.59.76 1.15-.49 1.68-.37.9.9 1.41 1.07 1.24-.24 1.73 0 .72 1.06 1.19 1.33 1.27 0 1.72.31.52 1.16 1 1.51 1.25.22 1.65.61.32 1.23.69 1.64 1.2.43 1.54.87.13 1.26.43 1.72 1.14.61 1.4 1.1-.06 1.26.17 1.76 1 .78 1.23 1.3-.26 1.23-.11 1.76.9.93 1 1.48-.45 1.16-.39 1.7.64.96.69 1.5Z"/><path d="M167.22 46.66c-.29-1.8-.74-3.84-1.28-5.92l-1.76-10.81.35-3.79-.15-3.32.41-5.57a1.22 1.22 0 0 0 0-.27.68.68 0 0 0-1.33.05l-.61 5.19h-.3l-.26-6.79a.33.33 0 0 0 0-.14.72.72 0 0 0-.88-.51.69.69 0 0 0-.53.69l.07 6.61h-.4l-.77-6.9a.29.29 0 0 0 0-.13.78.78 0 0 0-1.52.29l.49 7.07h-.29l-1.16-5.73a.69.69 0 0 0-.83-.49.68.68 0 0 0-.5.8l1.26 8.63-2.47-1.56a1.7 1.7 0 0 0-1.39-.19l-.61.18 3.57 4.31 1.87 2.19 1.56 20.54c-1 1.73-12.4 11.39-12.4 11.39-2 1.88.64 11.44.64 11.44l4.27 1.72 5.17-3.34s8.84-15.95 10-20.32a14.49 14.49 0 0 0-.22-5.32ZM123.05 97.6a88.59 88.59 0 0 0 2.85-8.71l-12-2-2.58 10.74Z" fill="#884934"/><path d="M116.8 96.23c1.26.44 2.48.86 3.58 1.37h2.67a88.59 88.59 0 0 0 2.85-8.71l-12-2-1.35 6.29a9.07 9.07 0 0 0 4.25 3.05Z" fill="#562d13"/><path d="M126.79 63.57c-5.31 2.08-7.38 3.91-9.29 8s-6.15 17.47-6.15 17.47 10.2 5.49 17.2 3.39Z" fill="#fa7598"/><path d="M123.84 89.43c-.49 2.84-.91 6.29-1.29 8.18h30.11a3.33 3.33 0 0 0-.22-1.17c-.59-1.65-1.12-1.54-1.23-4.31s.59-11.42 2-14.3-6.2-12.5-6.41-16.4a13 13 0 0 0-3.4.27c-1.15.38-12.31 1.43-12.31 1.43a5.93 5.93 0 0 0-2.9 0c-1.44.43-2.24.27-3.78 4.47s-3.72 8-2.07 11.54a17 17 0 0 1 1.5 10.29Z" fill="#fa7598"/><path d="m153.82 73.05 5-3.22a55.81 55.81 0 0 1 2.9-5.59c0-.14.06-.27.08-.41 0 .75-5.41 10.35-8.42 1.43-1.11-3.26-.62-5.86-.65-7.52a32.14 32.14 0 0 1-3.63 2.62c-1.88 1.82.62 11 .62 11Z" fill="#562d13"/><path d="M145.74 61.51a63.68 63.68 0 0 0 7-3.77s-3.75 1.15-.73 10.07 8.72-1.13 8.76-1.88a8.89 8.89 0 0 1-1.22 4.5c-1 1.64-5.6 5.32-6.7 7.59s-5.1.08-5.75-3.82-1.36-12.69-1.36-12.69Z" fill="#fa7598"/><path d="M160.75 65.93c0 .56-6.21 6-7.5 4.42 1 1.24 2 1.84 4.87.71a3.61 3.61 0 0 0 2.08-2.08 9.61 9.61 0 0 0 .55-3.05Z" fill="#192040"/><path d="M122.34 79.1c-1.11-2.36-.49-4.86.51-7.52a49.78 49.78 0 0 0-2.47 7.71c-.61 2.82-.15 7.17-.14 10.42a50.25 50.25 0 0 1-8.19-2.85l-.69 2.16a40 40 0 0 0 8.72 3.26l.44.1c.53.11 1.06.21 1.59.29h.09l.5.07h.1l.49.06c0-.37.11-.75.16-1.12v-.25l.18-1.13.15-.93a17 17 0 0 0-1.44-10.27Z" fill="#bb5872" opacity=".7"/><path d="M132.07 52.3s-.28 7.94-.94 8.88a5.79 5.79 0 0 1-2.81 1.52 1.93 1.93 0 0 0-1.3 2.1c.27 2.36 1.54 6.22 7 5.69a12 12 0 0 0 9.94-7.34 1.37 1.37 0 0 0-.64-1.83 1 1 0 0 0-.24-.09c-.82-.18-3.37-.34-3.57-1.14-.72-2.83.77-8.26.77-8.26Z" fill="#884934"/><path d="m124.92 42.55-.86 3a3.25 3.25 0 0 0-.12 1.2l.13 1.45a3.48 3.48 0 0 1 0 .79l-.08.52a8.77 8.77 0 0 0 .2 3.57l.45 1.64a13.61 13.61 0 0 0 .52 1.52l.68 1.62a2.87 2.87 0 0 0 2.55 1.83l2.33-.14-.17 4.38a4.53 4.53 0 0 0 4.51 3.77 4.64 4.64 0 0 0 4.32-4.69l.55-15s-6.23-7.7-15.01-5.46Z" fill="#884934"/><path d="M129.42 52.1s.33.1.32-.14-.73-.57-1.07-.77a.76.76 0 0 0-1 0c-.28.27-.7-.22-1-.16s.09.86.35 1 .29.28.61.28c.86-.02.82-.28 1.79-.21Z" opacity=".4"/><path d="M129.23 51.96s-.56-.59-.91-.43c-.52.25.06.52.91.43ZM127.55 51.99s-.35-.47-.56-.46.04.49.56.46Z"/><path d="m139.75 52.61.18-4.48a1.38 1.38 0 0 1 1.38-1.38 1.64 1.64 0 0 1 1.5 1.76v1.11a3 3 0 0 1-3 3Z" fill="#884934"/><path d="M127.15 47.32a2.52 2.52 0 0 0-2.25-.24l-.31-.34" fill="none" stroke="#000" stroke-linecap="round" stroke-linejoin="round" stroke-width=".37"/><ellipse cx="125.8" cy="47.41" rx=".62" ry=".67"/><path d="M136.1 56.65a12 12 0 0 1-6.4 3.08l1.21 5.93c.36 1.77 5.19-9.01 5.19-9.01Z" opacity=".4"/><path d="M134.39 46.36a2.69 2.69 0 0 0-1.65-.48l-2.76.24a.34.34 0 0 1-.38-.3.5.5 0 0 1 .45-.53l2.45-.21a1.77 1.77 0 0 1 1.89 1.28Z"/><path d="M139.94 47.99s-6.24-7.68-15-5.44a5.39 5.39 0 0 1 1.29-2.12c.84-.67 9.61-1.67 13.71 7.56Z" fill="#f1606a"/><path d="M140.49 51.73a.74.74 0 0 0-.48-.17c-.69 0-1.24 1-1.23 2.32s.59 2.3 1.29 2.29 1.24-1.05 1.22-2.32a3.77 3.77 0 0 0-.23-1.29" fill="none" stroke="#faa11b" stroke-linecap="round" stroke-linejoin="round" stroke-width=".3"/><path d="M123.29 46a2.25 2.25 0 0 1 1.41-.31l2.32.37a.3.3 0 0 0 .34-.25.44.44 0 0 0-.35-.47l-2.06-.33a1.49 1.49 0 0 0-1.66.99Z"/><path d="M129.96 47.43a2.45 2.45 0 0 1 3 0l.56-.52" fill="none" stroke="#000" stroke-linecap="round" stroke-linejoin="round" stroke-width=".37"/><ellipse cx="141.08" cy="52.15" rx=".7" ry=".68" transform="rotate(-88.85 134.037 54.688)"/><path d="M141.99 48.9c-.1-1.85-1.52-.64-1.52-.64l1.19.5a2.54 2.54 0 0 1-1.11 2.35c1.54-.17 1.44-2.21 1.44-2.21Z" opacity=".4"/><path d="M126.39 53.93s.56-.59 1-.39.61.21.91 0a1.18 1.18 0 0 1 1.27.17c.53.36 1.25-.07.94.35a2 2 0 0 1-1.48 1c-.73 0-2 .3-2.45-1Z" fill="#663727"/><path d="M126.24 53.84a4.17 4.17 0 0 0 4.5 0" fill="none" stroke="#3c2415" stroke-linecap="round" stroke-miterlimit="10" stroke-width=".35"/><path d="m164.25 30.02 1.77 10.85s2.18 7.65 1.36 11.13-6.54 14-6.54 14 6.24-12.31 6-16.26-2.59-19.72-2.59-19.72Z" fill="#562c12" opacity=".5"/></g><g class="avatar_one"><rect y="11.1" width="67.39" height="67.39" rx="9.75" fill="#fed4be"/><path d="M8.84 18.87c1.71-1.09-3.23-6.39 2.25-9.44 6.48-3.59 2-6.08 6.39-8.35a6.58 6.58 0 0 1 6.38.16c2-1.06 4.86-1.93 7.38-.48a8.17 8.17 0 0 1 2.23 1.82 4.53 4.53 0 0 1 4.55 4.51 4.61 4.61 0 0 1-.27 1.56l.27.14c3.61 1.7-.67 4.6 1.88 6.6 2.77 2.17-1.62 2.93 1.11 6.42a6.59 6.59 0 0 1-.35 7.45 4 4 0 0 1-3.75 6.85c-2.21 2.22-6 3.68-10.26 3.68-4.77 0-8.91-1.82-11-4.47a3.82 3.82 0 0 1-6-4.49 4.48 4.48 0 0 1-1.51-3.12 4.58 4.58 0 0 1 .44-2.22c-1.77-1.32-1.68-5.41.26-6.62Z"/><path d="M17.32 31.13s-6.77 2.59-9.07 4.86c0 0-6.59 1.12-3.24 17.89l12.46-2.28-2.38 20-.81 6.94h32.73s-3.46-10.11-3.25-16.6c0 0 5.77-3.15 2.53-10.24l-5.74-11.57a8.6 8.6 0 0 0-3.23-3.48l-6.19-3.69Z" fill="#78d7dd"/><path d="M43.76 61.94s5.79-3.15 2.53-10.24l-5.74-11.57 4.85 13.79s1.27 3.44-1.64 8.02Z" fill="#5aa1a6"/><path fill="none" d="m29.44 23.27.03.12"/><path d="m40.55 40.13 5.67 11.35 3.37-2-3-5.24c-4.37-6.9-7.75-6.45-7.75-6.45a8.4 8.4 0 0 1 1.71 2.34Z" fill="#78d7dd"/><path d="m48.41 50.15-2.23 1.33.11.22c2.57 5.61-.52 8.75-1.91 9.82l12 14.19h8.64Z" fill="#c56c60"/><path d="M17.47 51.6a32.28 32.28 0 0 0 .46-10 23.86 23.86 0 0 1 .42 12.52s2.73 6.86 2.76 9.7l-2.76 2.4Z" fill="#5aa1a6"/><path d="M42.41 53.94v3.94c0 1.68 1.18 1.91 2.76 2.24v.79h6.08v-.79c1.57-.33 2.76-.56 2.76-2.24v-3.94Z" fill="#1a1a1a"/><path fill="#945148" d="M33.6 61.72h-2.04l1.6.44.44-.44z"/><path fill="#fff" d="M31.09 32.97zM34.6 37.43a7.4 7.4 0 0 0 .1-2.3l-2.15-1.31c3.8 6.41-.74 7.65-.74 7.65-6.08 1.31-14.49-10.33-14.49-10.34a3.79 3.79 0 0 0-1.77 3.3c0 2.34 3.47 2.48 4.11 1.64 0 0-.84 2.13.6 3.17a3.46 3.46 0 0 0 3.17.3 2.64 2.64 0 0 0 1.54 2.68 2.75 2.75 0 0 0 2.92-.64s.9 2.13 4.07 2.13 2.59-3.14 2.59-3.14 1.34-.44 1.34-1.63a1.69 1.69 0 0 0-1.29-1.51Z"/><path d="m36.66 18.94-.11-.51a2.75 2.75 0 0 1 0-.81l.12-1.49a3 3 0 0 0-.12-1.27l-1-3.08a10.81 10.81 0 0 1-8.41-4.15c.16 1.26-.18 3.1-2.74 4.51-4.66 2.57-1.13 4.78-5.41 5.47v.14a1.48 1.48 0 0 0-1.56-1.39 1.74 1.74 0 0 0-1.64 1.83l.07 1.14a3.21 3.21 0 0 0 3.37 3v6.79a1.65 1.65 0 0 1-.91 1.48l-1 .5s8.4 11.68 14.48 10.33c0 0 4.7-1.11.74-7.65l-1.45-.86v-3.4h.84a3.21 3.21 0 0 0 2.8-1.92l.72-1.68a11 11 0 0 0 .56-1.58l.48-1.69a8.31 8.31 0 0 0 .17-3.71Z" fill="#c76c61"/><path d="M30.65 21.68s-.36.12-.36-.13.8-.6 1.18-.81a.86.86 0 0 1 1.07 0c.32.27.78-.24 1.07-.18s-.08.88-.38 1-.31.3-.66.3c-.89.01-.85-.26-1.92-.18Z"/><path d="M30.86 21.54s.61-.61 1-.45c.58.24-.06.53-1 .45ZM32.73 21.55s.38-.49.61-.49-.04.51-.61.49ZM25.47 16.77a4 4 0 0 1 1.08-.47 5.81 5.81 0 0 1 1.16-.23 4.84 4.84 0 0 1 1.2.06 1.67 1.67 0 0 1 1 .59 2.76 2.76 0 0 0-1.1-.17 10.14 10.14 0 0 0-1.1.06l-1.13.1c-.33.03-.71.06-1.11.06Z"/><circle cx="28.08" cy="16.81" r=".77"/><path d="M33.2 16.63a2.33 2.33 0 0 1 .72-.44 3.71 3.71 0 0 1 .81-.21 2.6 2.6 0 0 1 1.64.28c-.28.08-.54.12-.8.17l-.77.11a8.59 8.59 0 0 1-1.6.09Z"/><circle cx="34.8" cy="16.7" r=".69"/><path d="M30.63 15.25a.48.48 0 0 0-.37-.58l-1.18-.24-.83-.13a6.47 6.47 0 0 0-.87-.11 3 3 0 0 0-1.74.51 8.36 8.36 0 0 0-1.36 1 8.21 8.21 0 0 0 1.59-.59 2.39 2.39 0 0 1 1.46-.26 2.22 2.22 0 0 1 .37.09l.41.09.81.2 1.26.28a.38.38 0 0 0 .45-.3ZM33.01 15.43a.22.22 0 0 1-.28-.13.2.2 0 0 1 0-.21 4 4 0 0 1 2.66-1 2.82 2.82 0 0 1 1.47.6.14.14 0 0 1 0 .2.16.16 0 0 1-.13 0 4.69 4.69 0 0 0-1.49-.19 11.23 11.23 0 0 0-2.23.73ZM16.75 18.62c.1-2 1.64-.7 1.64-.7l-1.29.51a2.76 2.76 0 0 0 1.26 2.55c-1.72-.15-1.61-2.36-1.61-2.36Z"/><path d="M34.34 23.33s-.58-.67-1.15-.47-.34.47-1.12.1-1.54.53-2.28.73.15.7.48 1a2.9 2.9 0 0 0 2.13.55 1.71 1.71 0 0 0 1.8-1.41s.26.11.14-.5Z" fill="#921d21"/><path d="M32.19 24.31a13.23 13.23 0 0 1-3-.42v-.16s3.8 1 5.29-.18l.1.13a4 4 0 0 1-2.39.63Z" fill="#450709"/><path d="M24.55 26.85s3.73 2.81 6.51 2.67v3.44l1.45.86s2.81 4.24.8 6.6c.03.01-8.46-7.25-8.76-13.57Z" fill="#945148"/><path d="M8.25 35.99S4.07 39.2 6.1 53.68l-1.09.2s-3.52-15.8 3.24-17.89Z" fill="#93dfe4"/><path fill="#5aa1a6" d="M33.6 61.72 21.91 78.5h-7.63l17.28-16.78h2.04z"/><path d="M6.1 53.68s3.16 18 4.47 21.14 2.87 6 9.75.37L33.6 61.71h4a3.09 3.09 0 0 0 2-.7 4.48 4.48 0 0 0 .58-1.13s1.91-.31 1.91-1.94a2.41 2.41 0 0 0 1.34-2h2a1 1 0 0 0 1-1 1 1 0 0 0-1-1h-5.6l-1.15-1a2.91 2.91 0 0 0-1.93-.73 5.85 5.85 0 0 0-3.85 1.44L18.35 66.19l-.88-14.59Z" fill="#c56c60"/><path fill="#945148" d="m6.1 53.69 11.37-2.09-10.93 4.53-.44-2.44zM20.32 75.19s-7.7 4.09-9.75-.37c0 0 .58 3.67 3.51 3.67s6.24-3.3 6.24-3.3ZM18.35 66.19l-1.8 1.31a7.53 7.53 0 0 0 1.59-3.15ZM39.84 53.94h-1.45a1.77 1.77 0 0 1-1.45-.75l1 .53ZM43.36 55.95l-2.68-.04 2.67.26.01-.22zM42.02 57.95l-2.67-.04 2.66.28.01-.24zM40.11 59.88l-2.67-.04 2.58.26.09-.22z"/><path d="M52.27 78.49h35a1.47 1.47 0 0 0 1.43-1.15l5.13-23.91a1.11 1.11 0 0 0-.84-1.32 1.07 1.07 0 0 0-.25 0H59.19a1.56 1.56 0 0 0-1.53 1.24Z" fill="#fff"/><path d="M69.24 78.5H39.55a1.41 1.41 0 0 1-1.41-1.41v-1.22h31.1v2.63Z" fill="#fff"/><path d="M71.8 65.43a.72.72 0 0 1-1.43 0 .71.71 0 0 1 .71-.71h.72ZM72.15 65.43a.72.72 0 0 1 1.4 0v1.78a.72.72 0 1 1-1.43.17.49.49 0 0 1 0-.17Z" fill="#d21a69"/><path d="M72.87 62.58a.71.71 0 1 1 .71-.71v.71ZM72.87 62.94a.72.72 0 0 1 0 1.43h-1.79a.72.72 0 0 1 0-1.43Z" fill="#3fb1de"/><path d="M75.72 63.65a.72.72 0 1 1 .72.72h-.72ZM75.37 63.65a.72.72 0 1 1-1.43.17.49.49 0 0 1 0-.17v-1.78a.72.72 0 0 1 1.43 0Z" fill="#00ad72"/><path d="M74.65 66.51a.72.72 0 1 1-.71.73v-.73ZM74.65 66.15a.71.71 0 0 1 0-1.42h1.79a.71.71 0 1 1 0 1.42h-1.79Z" fill="#efae21"/></g><g class="message_one"><path d="M64.39 3.64h54.93a10 10 0 0 1 10 10 10 10 0 0 1-10 10H64.39a10 10 0 0 1-10-10 10 10 0 0 1 10-10Z" fill="#fff"/><path d="M67.78 14.3c.16.23.32.45.49.66-.27.06-.54.16-.82.24a6.9 6.9 0 0 0 .33-.9Zm-.09-2.06c-.37 0-.55.24-.55.64a2 2 0 0 0 .25.84 10.83 10.83 0 0 1-.62 1.64c-.74.33-1.12.67-1.12 1a.61.61 0 0 0 .58.57c.45 0 .79-.62 1-1.1a7.5 7.5 0 0 1 1.38-.4 1.28 1.28 0 0 0 .8.38.63.63 0 0 0 .67-.59c0-.28-.23-.55-.72-.55h-.52a4.73 4.73 0 0 1-.76-1.07 3.86 3.86 0 0 0 .1-.75c0-.42-.21-.61-.49-.61Z" fill="#de4537" fill-rule="evenodd"/><path d="M70.85 19.43h-6a1.25 1.25 0 0 1-1.3-1.26h0V9.68a1.27 1.27 0 0 1 1.33-1.25h3.25a.69.69 0 0 1 .5.23l3.3 3.65a.65.65 0 0 1 .18.46v5.36a1.26 1.26 0 0 1-1.22 1.3Z" fill="none" stroke="#de4537" stroke-linecap="round" stroke-linejoin="round" stroke-width=".62"/><rect x="74.43" y="7.79" width="46" height="3.81" rx="1.9" fill="#ebeaeb"/><path d="M76.34 15.57h32.94a1.91 1.91 0 0 1 1.91 1.91 1.91 1.91 0 0 1-1.91 1.95H76.34a1.91 1.91 0 0 1-1.91-2 1.91 1.91 0 0 1 1.91-1.86Z" fill="#ebeaeb"/></g></svg>