<?xml version="1.0" encoding="UTF-8" standalone="no"?>
<!-- Generator: Adobe Illustrator 15.1.0, SVG Export Plug-In . SVG Version: 6.00 Build 0)  -->

<svg
   version="1.1"
   id="Layer_1"
   x="0px"
   y="0px"
   width="74"
   height="30"
   viewBox="0 0 74 30"
   enable-background="new 0 0 210 91"
   xml:space="preserve"
   sodipodi:docname="Kiva-logo.svg"
   inkscape:version="1.1.2 (1:1.1+202202050950+0a00cf5339)"
   xmlns:inkscape="http://www.inkscape.org/namespaces/inkscape"
   xmlns:sodipodi="http://sodipodi.sourceforge.net/DTD/sodipodi-0.dtd"
   xmlns="http://www.w3.org/2000/svg"
   xmlns:svg="http://www.w3.org/2000/svg"><defs
   id="defs7" /><sodipodi:namedview
   id="namedview5"
   pagecolor="#ffffff"
   bordercolor="#666666"
   borderopacity="1.0"
   inkscape:pageshadow="2"
   inkscape:pageopacity="0.0"
   inkscape:pagecheckerboard="true"
   showgrid="false"
   inkscape:zoom="12.742857"
   inkscape:cx="39.433857"
   inkscape:cy="16.715247"
   inkscape:window-width="1920"
   inkscape:window-height="1001"
   inkscape:window-x="2560"
   inkscape:window-y="0"
   inkscape:window-maximized="1"
   inkscape:current-layer="Layer_1" />
<path
   fill="#64a544"
   d="M 6.5495879,0.68376632 H 0.45341286 V 29.428356 H 6.5495879 Z M 22.636212,29.428356 h 6.096169 V 9.2773704 h -6.096169 z m 15.57858,0 H 45.24219 L 52.269965,9.2773704 h -6.054113 c 0,0 -3.301736,10.9648446 -4.275398,14.4359366 h -0.08455 C 40.881881,20.242215 37.537701,9.2773704 37.537701,9.2773704 H 31.102837 Z M 73.606036,9.2773704 H 67.72164 V 12.029006 C 66.705909,9.9123346 64.334659,8.7272611 61.583033,8.7272611 c -4.994869,0 -8.932297,4.0639959 -8.932297,10.6254189 0,6.604583 3.810155,10.625417 8.636396,10.625417 3.386228,0 5.418777,-1.650688 6.434508,-3.471091 v 2.920984 h 5.884396 z M 67.552277,19.860725 c 0,3.725663 -2.286004,5.461574 -4.572031,5.461574 -2.498168,0 -4.106413,-2.540225 -4.106413,-5.969252 0,-3.386967 1.693115,-5.968889 4.317821,-5.968889 2.158734,0 4.360268,1.777975 4.360268,5.460843 z M 8.1157852,18.845001 c 9.7790408,0 12.0650598,-8.170416 12.0650598,-9.5672664 h -0.84674 c -9.7790432,0 -12.0650629,8.1704174 -12.0650629,9.5672664 z m -0.8467431,0.761885 c 0,1.481706 1.6934843,9.821104 12.2347759,9.821104 h 0.846375 c 0,-1.48134 -1.693483,-9.821104 -12.2344078,-9.821104 z M 29.324917,3.7316708 c 0,-1.9048956 -1.396836,-3.55594966 -3.640801,-3.55594966 -2.243957,0 -3.640807,1.65105406 -3.640807,3.55594966 0,1.9048934 1.39685,3.5563137 3.640807,3.5563137 2.243965,0 3.640801,-1.651054 3.640801,-3.5563137"
   id="path2"
   style="stroke-width:0.365762" />
</svg>
