<?xml version="1.0" encoding="UTF-8" standalone="no"?>
<!-- Generator: Adobe Illustrator 21.0.0, SVG Export Plug-In . SVG Version: 6.00 Build 0)  -->

<svg
   version="1.1"
   id="svg3506"
   inkscape:version="1.1.2 (1:1.1+202202050950+0a00cf5339)"
   sodipodi:docname="lonely-planet.svg"
   x="0px"
   y="0px"
   viewBox="0 0 137 67.999999"
   xml:space="preserve"
   width="137"
   height="68"
   xmlns:inkscape="http://www.inkscape.org/namespaces/inkscape"
   xmlns:sodipodi="http://sodipodi.sourceforge.net/DTD/sodipodi-0.dtd"
   xmlns="http://www.w3.org/2000/svg"
   xmlns:svg="http://www.w3.org/2000/svg"><defs
   id="defs32"><inkscape:path-effect
     effect="powerclip"
     id="path-effect1428"
     is_visible="true"
     lpeversion="1"
     inverse="true"
     flatten="false"
     hide_clip="false"
     message="Use fill-rule evenodd on &lt;b&gt;fill and stroke&lt;/b&gt; dialog if no flatten result after convert clip to paths." /><inkscape:path-effect
     effect="powerclip"
     id="path-effect1412"
     is_visible="true"
     lpeversion="1"
     inverse="true"
     flatten="false"
     hide_clip="false"
     message="Use fill-rule evenodd on &lt;b&gt;fill and stroke&lt;/b&gt; dialog if no flatten result after convert clip to paths." /><clipPath
     clipPathUnits="userSpaceOnUse"
     id="clipPath1402"><g
       id="g1410"
       style="display:none"><path
         class="st1"
         d="m 223.8,90.8 c 5,0 9.1,4.1 9.1,9.1 0,5 -4.1,9.1 -9.1,9.1 -5,0 -9.1,-4.1 -9.1,-9.1 -0.1,-5 4,-9.1 9.1,-9.1"
         id="path1404" /><path
         class="st1"
         d="m 277.1,90.8 c 5,0 9.1,4.1 9.1,9.1 0,5 -4.1,9.1 -9.1,9.1 -5,0 -9.1,-4.1 -9.1,-9.1 -0.1,-5 4,-9.1 9.1,-9.1"
         id="path1406" /><path
         class="st1"
         d="m 346.9,97.1 h 17.5 c -2.8,-8.9 -15.2,-8.5 -17.5,0"
         id="path1408" /></g><path
       id="lpe_path-effect1412"
       class="powerclip"
       d="m 196.5,56 h 207.90067 v 87.5 H 196.5 Z m 27.3,34.8 c -5.1,0 -9.2,4.1 -9.1,9.1 0,5 4.1,9.1 9.1,9.1 5,0 9.1,-4.1 9.1,-9.1 0,-5 -4.1,-9.1 -9.1,-9.1 m 53.3,0 c -5.1,0 -9.2,4.1 -9.1,9.1 0,5 4.1,9.1 9.1,9.1 5,0 9.1,-4.1 9.1,-9.1 0,-5 -4.1,-9.1 -9.1,-9.1 m 69.8,6.3 h 17.5 c -2.8,-8.9 -15.2,-8.5 -17.5,0" /></clipPath><clipPath
     clipPathUnits="userSpaceOnUse"
     id="clipPath1420"><g
       id="g1426"
       style="display:none"><path
         class="st1"
         d="m 34.5,90.6 c 5,0 9.1,4.1 9.1,9.1 0,5 -4.1,9.1 -9.1,9.1 -5,0 -9.1,-4.1 -9.1,-9.1 0,-5 4,-9.1 9.1,-9.1"
         id="path1422" /><path
         class="st1"
         d="m 122,97.9 c -2.9,-9.2 -15,-9 -17.7,0 z"
         id="path1424" /></g><path
       id="lpe_path-effect1428"
       class="powerclip"
       d="m -4.5,56 h 193 v 92.30431 h -193 z m 39,34.6 c -5.1,0 -9.1,4.1 -9.1,9.1 0,5 4.1,9.1 9.1,9.1 5,0 9.1,-4.1 9.1,-9.1 0,-5 -4.1,-9.1 -9.1,-9.1 m 87.5,7.3 c -2.9,-9.2 -15,-9 -17.7,0 z" /></clipPath></defs>
<style
   type="text/css"
   id="style2">
	.st0{fill:#2A3E92;}
	.st1{fill:#FFFFFF;}
</style>
<sodipodi:namedview
   bordercolor="#666666"
   borderopacity="1.0"
   fit-margin-bottom="0.5"
   fit-margin-left="0.5"
   fit-margin-right="0.5"
   fit-margin-top="0.5"
   id="base"
   inkscape:current-layer="svg3506"
   inkscape:cx="263.75"
   inkscape:cy="96.071429"
   inkscape:document-units="px"
   inkscape:pageopacity="0.0"
   inkscape:pageshadow="2"
   inkscape:window-height="1361"
   inkscape:window-maximized="1"
   inkscape:window-width="2560"
   inkscape:window-x="0"
   inkscape:window-y="0"
   inkscape:zoom="2.8"
   pagecolor="#ffffff"
   showgrid="false"
   inkscape:pagecheckerboard="true"
   units="mm"
   width="137px">
	</sodipodi:namedview>
<path
   class="st0"
   d="m 99.388347,45.591454 c -4.522748,12.786113 -16.832783,22.001637 -31.285172,22.001637 -14.5204,0 -26.864441,-9.147512 -31.285171,-22.069648 l 1.700281,-0.578096 1.700281,-0.578096 c 4.080674,11.425889 14.996479,19.451216 27.884609,19.451216 12.854125,0 23.837941,-8.161349 27.952621,-19.519227 z"
   id="path5"
   style="stroke-width:0.340056" />
<path
   class="st0"
   d="M 36.818004,22.909704 C 41.340751,9.8855515 53.650786,0.5 68.103175,0.5 c 14.5204,0 26.864441,9.3175402 31.285172,22.477716 l -1.700281,0.578095 -1.700281,0.578096 C 91.90711,12.503984 80.991306,4.3086296 68.103175,4.3086296 c -12.854125,0 -23.83794,8.3313774 -27.952621,19.8592824 z"
   id="path7"
   style="stroke-width:0.340056" />
<line
   class="st0"
   x1="76.332535"
   y1="31.207077"
   x2="76.196518"
   y2="26.956375"
   id="line9"
   style="stroke-width:0.340056" />
<line
   class="st0"
   x1="94.457527"
   y1="31.207077"
   x2="94.423531"
   y2="26.956375"
   id="line11"
   style="stroke-width:0.340056" />
<path
   class="st0"
   d="m 398.3,105.7 0.6,-0.6 0.5,12.1 c 0.1,2.9 -11,7.2 -17.2,2.7 -6.2,-4.5 -6.3,-9.7 -6.3,-16.5 H 347 c 3.1,8.3 13,7.4 15.8,3.2 l 12.1,2 c -4.5,13.9 -16.4,15.8 -27.8,12 -5.8,-2.8 -9.3,-6.3 -11.9,-12.2 v 13.9 H 321 c 0,-8.5 0,-18.2 -0.1,-26.8 -0.5,-5.6 -9.5,-5.2 -9.5,0.3 v 26.5 l -14,0.2 h -4.1 -5.6 v -8.4 c 0,-3.3 -3.8,8.7 -8.4,8.4 -9.8,0.7 -17.8,-4.4 -21.9,-13.2 v 13 H 243 v -13 c -4.2,8.4 -15.2,13.8 -25.9,11.1 l -1.6,-0.7 c 0,0 0.4,14.9 0.4,18.8 h -14.4 v -38.2 c 0.4,-18 19.8,-28.7 34.6,-18 3.1,2.6 5.1,5.1 6.9,8.7 V 61 h 14.4 v 30.1 c 4.7,-9.6 13.7,-14.3 24.4,-12.5 7.9,2.2 12.5,6.1 15.7,13.4 4,-11.7 15.1,-16.5 26.7,-12.5 5.8,2.7 9,6.5 11,12.5 5.3,-11.5 16.7,-16.5 28.6,-12.3 6,2.7 9.8,6.2 12.3,12.3 V 69.6 H 390 v 8.8 h 8.8 V 91.3 H 390 c 0,4.4 -0.7,8.8 0.7,12.9 1.3,2.9 5.1,3.5 7.6,1.5"
   id="path13"
   clip-path="url(#clipPath1402)"
   inkscape:path-effect="#path-effect1412"
   inkscape:original-d="m 398.3,105.7 0.6,-0.6 0.5,12.1 c 0.1,2.9 -11,7.2 -17.2,2.7 -6.2,-4.5 -6.3,-9.7 -6.3,-16.5 H 347 c 3.1,8.3 13,7.4 15.8,3.2 l 12.1,2 c -4.5,13.9 -16.4,15.8 -27.8,12 -5.8,-2.8 -9.3,-6.3 -11.9,-12.2 v 13.9 H 321 c 0,-8.5 0,-18.2 -0.1,-26.8 -0.5,-5.6 -9.5,-5.2 -9.5,0.3 v 26.5 l -14,0.2 h -4.1 -5.6 v -8.4 c 0,-3.3 -3.8,8.7 -8.4,8.4 -9.8,0.7 -17.8,-4.4 -21.9,-13.2 v 13 H 243 v -13 c -4.2,8.4 -15.2,13.8 -25.9,11.1 l -1.6,-0.7 c 0,0 0.4,14.9 0.4,18.8 h -14.4 v -38.2 c 0.4,-18 19.8,-28.7 34.6,-18 3.1,2.6 5.1,5.1 6.9,8.7 V 61 h 14.4 v 30.1 c 4.7,-9.6 13.7,-14.3 24.4,-12.5 7.9,2.2 12.5,6.1 15.7,13.4 4,-11.7 15.1,-16.5 26.7,-12.5 5.8,2.7 9,6.5 11,12.5 5.3,-11.5 16.7,-16.5 28.6,-12.3 6,2.7 9.8,6.2 12.3,12.3 V 69.6 H 390 v 8.8 h 8.8 V 91.3 H 390 c 0,4.4 -0.7,8.8 0.7,12.9 1.3,2.9 5.1,3.5 7.6,1.5"
   transform="matrix(0.34005621,0,0,0.34005621,0.32997189,0.32997189)" />
<line
   class="st0"
   x1="120.94791"
   y1="26.990379"
   x2="121.15194"
   y2="31.173069"
   id="line15"
   style="stroke-width:0.340056" />
<line
   class="st0"
   x1="11.857878"
   y1="31.139065"
   x2="11.925888"
   y2="26.956375"
   id="line17"
   style="stroke-width:0.340056" />
<path
   class="st0"
   d="M 183.5,125.1 V 78.2 H 169.3 V 105 c 0,4.9 -7.1,4.9 -7.1,0 V 78.2 H 148 V 61 H 133.6 V 92 C 129,82.1 120.2,77 109.2,78.5 101.3,80.3 95.7,84.6 92.7,92 90,83.3 83.5,78.6 74.5,78.2 65,78.2 57.9,82.9 55,92 50.2,81.4 40.6,76.3 29.1,78.9 22.2,81.1 18.1,84.7 14.9,91.1 V 61 H 0.5 v 61.3 h 14.4 v -13.8 c 4.1,8.2 10.9,12.7 20.1,12.9 9.8,-0.6 16,-5.2 19.9,-13.8 v 14.7 H 68.8 V 95.8 c 0.5,-5.8 9.3,-5.9 9.8,0 v 26.5 h 13.9 v -13.9 c 3.2,7.1 8.2,11.4 15.8,13.3 16.5,1.6 23.1,-9.8 23.2,-12.7 l -11.9,-1.8 c -6,4.6 -12.9,2.2 -15.1,-3.9 h 29 v 18.9 H 148 v -9.7 c 2.4,9.6 14.3,12.9 21,5.7 0,2.1 -0.2,4.6 -0.9,6.6 -2.2,5.2 -9.4,5.2 -13.1,1.7 l -8.5,11 c 5.4,4.3 10.9,6.3 17.9,5.7 5.8,-0.6 9.4,-1.6 13.9,-5.6 3.4,-3.6 4.9,-7.5 5.2,-12.5"
   id="path19"
   clip-path="url(#clipPath1420)"
   inkscape:path-effect="#path-effect1428"
   inkscape:original-d="M 183.5,125.1 V 78.2 H 169.3 V 105 c 0,4.9 -7.1,4.9 -7.1,0 V 78.2 H 148 V 61 H 133.6 V 92 C 129,82.1 120.2,77 109.2,78.5 101.3,80.3 95.7,84.6 92.7,92 90,83.3 83.5,78.6 74.5,78.2 65,78.2 57.9,82.9 55,92 50.2,81.4 40.6,76.3 29.1,78.9 22.2,81.1 18.1,84.7 14.9,91.1 V 61 H 0.5 v 61.3 h 14.4 v -13.8 c 4.1,8.2 10.9,12.7 20.1,12.9 9.8,-0.6 16,-5.2 19.9,-13.8 v 14.7 H 68.8 V 95.8 c 0.5,-5.8 9.3,-5.9 9.8,0 v 26.5 h 13.9 v -13.9 c 3.2,7.1 8.2,11.4 15.8,13.3 16.5,1.6 23.1,-9.8 23.2,-12.7 l -11.9,-1.8 c -6,4.6 -12.9,2.2 -15.1,-3.9 h 29 v 18.9 H 148 v -9.7 c 2.4,9.6 14.3,12.9 21,5.7 0,2.1 -0.2,4.6 -0.9,6.6 -2.2,5.2 -9.4,5.2 -13.1,1.7 l -8.5,11 c 5.4,4.3 10.9,6.3 17.9,5.7 5.8,-0.6 9.4,-1.6 13.9,-5.6 3.4,-3.6 4.9,-7.5 5.2,-12.5"
   transform="matrix(0.34005621,0,0,0.34005621,0.32997189,0.32997189)" />





</svg>
