<?xml version="1.0" encoding="UTF-8" standalone="no"?>
<!-- Generator: Adobe Illustrator 13.0.0, SVG Export Plug-In . SVG Version: 6.00 Build 14948)  -->

<svg
   version="1.1"
   id="Layer_1"
   x="0px"
   y="0px"
   width="35"
   height="35"
   viewBox="0 0 35 35"
   enable-background="new 0 0 432 574"
   xml:space="preserve"
   sodipodi:docname="Target_logo.svg"
   inkscape:version="1.1.2 (1:1.1+202202050950+0a00cf5339)"
   xmlns:inkscape="http://www.inkscape.org/namespaces/inkscape"
   xmlns:sodipodi="http://sodipodi.sourceforge.net/DTD/sodipodi-0.dtd"
   xmlns="http://www.w3.org/2000/svg"
   xmlns:svg="http://www.w3.org/2000/svg"><defs
   id="defs25" /><sodipodi:namedview
   id="namedview23"
   pagecolor="#ffffff"
   bordercolor="#666666"
   borderopacity="1.0"
   inkscape:pageshadow="2"
   inkscape:pageopacity="0.0"
   inkscape:pagecheckerboard="true"
   showgrid="false"
   inkscape:zoom="12.167247"
   inkscape:cx="18.779926"
   inkscape:cy="17.423826"
   inkscape:window-width="2560"
   inkscape:window-height="1361"
   inkscape:window-x="0"
   inkscape:window-y="0"
   inkscape:window-maximized="1"
   inkscape:current-layer="g18" />
<g
   id="g20">
	<g
   id="g18">
		<path
   fill="#cc0000"
   d="m 17.555153,29.099944 c -6.412809,0 -11.6170337,-5.195943 -11.6170337,-11.609832 0,-6.425501 5.2042247,-11.6176633 11.6170337,-11.6176633 6.418391,0 11.616133,5.1921623 11.616133,11.6176633 0,6.413889 -5.197742,11.609832 -11.616133,11.609832 m 0,-29.02827068 c -9.613588,0 -17.40943715,7.79782998 -17.40943715,17.41843868 0,9.613228 7.79584915,17.408627 17.40943715,17.408627 9.617728,0 17.42582,-7.795399 17.42582,-17.408627 0,-9.6206087 -7.808092,-17.41843868 -17.42582,-17.41843868 z"
   id="path2"
   style="stroke-width:0.0900182" />
		<path
   fill="#cc0000"
   d="m 17.555153,11.521272 c -3.295298,0 -5.965328,2.66355 -5.965328,5.96884 0,3.294398 2.66994,5.965869 5.965328,5.965869 3.298448,0 5.97424,-2.671561 5.97424,-5.965869 0,-3.305199 -2.675792,-5.96884 -5.97424,-5.96884"
   id="path4"
   style="stroke-width:0.0900182" />
		
		
		
		
		
		
	</g>
</g>
</svg>
