<?xml version="1.0" encoding="UTF-8" standalone="no"?>
<!-- Generator: Adobe Illustrator 23.0.1, SVG Export Plug-In . SVG Version: 6.00 Build 0)  -->

<svg
   version="1.1"
   id="Layer_1"
   x="0px"
   y="0px"
   viewBox="0 0 622.3 254.4"
   style="enable-background:new 0 0 622.3 254.4;"
   xml:space="preserve"
   sodipodi:docname="relay_RGB.svg"
   inkscape:version="1.1.2 (1:1.1+202202050950+0a00cf5339)"
   xmlns:inkscape="http://www.inkscape.org/namespaces/inkscape"
   xmlns:sodipodi="http://sodipodi.sourceforge.net/DTD/sodipodi-0.dtd"
   xmlns="http://www.w3.org/2000/svg"
   xmlns:svg="http://www.w3.org/2000/svg"><defs
   id="defs47" /><sodipodi:namedview
   id="namedview45"
   pagecolor="#ffffff"
   bordercolor="#666666"
   borderopacity="1.0"
   inkscape:pageshadow="2"
   inkscape:pageopacity="0.0"
   inkscape:pagecheckerboard="0"
   showgrid="false"
   inkscape:zoom="2.1500884"
   inkscape:cx="253.01285"
   inkscape:cy="126.97152"
   inkscape:window-width="2560"
   inkscape:window-height="1361"
   inkscape:window-x="0"
   inkscape:window-y="0"
   inkscape:window-maximized="1"
   inkscape:current-layer="g42" />
<style
   type="text/css"
   id="style2">
	.st0{fill:#E01E5A;}
	.st1{fill:#36C5F0;}
	.st2{fill:#2EB67D;}
	.st3{fill:#ECB22E;}
</style>
<g
   id="g42">
	
	<g
   id="g40">
		<g
   id="g20">
			<path
   class="st0"
   d="M89.2,142c0,7.3-5.9,13.2-13.2,13.2s-13.2-5.9-13.2-13.2s5.9-13.2,13.2-13.2h13.2V142z"
   id="path16" />
			<path
   class="st0"
   d="M95.8,142c0-7.3,5.9-13.2,13.2-13.2s13.2,5.9,13.2,13.2V175c0,7.3-5.9,13.2-13.2,13.2s-13.2-5.9-13.2-13.2     V142z"
   id="path18" />
		</g>
		<g
   id="g26">
			<path
   class="st1"
   d="M109,89c-7.3,0-13.2-5.9-13.2-13.2c0-7.3,5.9-13.2,13.2-13.2s13.2,5.9,13.2,13.2V89H109z"
   id="path22" />
			<path
   class="st1"
   d="M109,95.7c7.3,0,13.2,5.9,13.2,13.2c0,7.3-5.9,13.2-13.2,13.2H75.9c-7.3,0-13.2-5.9-13.2-13.2     c0-7.3,5.9-13.2,13.2-13.2H109z"
   id="path24" />
		</g>
		<g
   id="g32">
			<path
   class="st2"
   d="M161.9,108.9c0-7.3,5.9-13.2,13.2-13.2s13.2,5.9,13.2,13.2c0,7.3-5.9,13.2-13.2,13.2h-13.2V108.9z"
   id="path28" />
			<path
   class="st2"
   d="M155.3,108.9c0,7.3-5.9,13.2-13.2,13.2s-13.2-5.9-13.2-13.2V75.8c0-7.3,5.9-13.2,13.2-13.2     s13.2,5.9,13.2,13.2V108.9z"
   id="path30" />
		</g>
		<g
   id="g38">
			<path
   class="st3"
   d="M142.1,161.8c7.3,0,13.2,5.9,13.2,13.2c0,7.3-5.9,13.2-13.2,13.2s-13.2-5.9-13.2-13.2v-13.2H142.1z"
   id="path34" />
			<path
   class="st3"
   d="M142.1,155.2c-7.3,0-13.2-5.9-13.2-13.2s5.9-13.2,13.2-13.2h33.1c7.3,0,13.2,5.9,13.2,13.2     s-5.9,13.2-13.2,13.2H142.1z"
   id="path36" />
		</g>
	</g>
</g>
<g
   inkscape:groupmode="layer"
   id="layer1"
   inkscape:label="Layer 1"
   style="display:inline"><text
     xml:space="preserve"
     style="font-size:139.052px;line-height:1.25;font-family:'Kumbh Sans';-inkscape-font-specification:'Kumbh Sans';stroke-width:0.948077"
     x="214.4902"
     y="169.0741"
     id="text2119"><tspan
       sodipodi:role="line"
       id="tspan2117"
       x="214.4902"
       y="169.0741"
       style="font-size:139.052px;stroke-width:0.948077">relay</tspan></text></g></svg>
