<?xml version="1.0" encoding="UTF-8" standalone="no"?>
<!-- Generator: Adobe Illustrator 23.0.1, SVG Export Plug-In . SVG Version: 6.00 Build 0)  -->

<svg
   version="1.1"
   id="Layer_1"
   x="0px"
   y="0px"
   viewBox="0 0 622.3 200"
   xml:space="preserve"
   sodipodi:docname="relay_white.svg"
   inkscape:version="1.1.2 (1:1.1+202202050950+0a00cf5339)"
   width="622.29999"
   height="200"
   xmlns:inkscape="http://www.inkscape.org/namespaces/inkscape"
   xmlns:sodipodi="http://sodipodi.sourceforge.net/DTD/sodipodi-0.dtd"
   xmlns="http://www.w3.org/2000/svg"
   xmlns:svg="http://www.w3.org/2000/svg"><defs
   id="defs47" /><sodipodi:namedview
   id="namedview45"
   pagecolor="#ffffff"
   bordercolor="#666666"
   borderopacity="1.0"
   inkscape:pageshadow="2"
   inkscape:pageopacity="0.0"
   inkscape:pagecheckerboard="true"
   showgrid="false"
   inkscape:zoom="2.1500884"
   inkscape:cx="296.49944"
   inkscape:cy="126.73898"
   inkscape:window-width="1950"
   inkscape:window-height="1206"
   inkscape:window-x="327"
   inkscape:window-y="78"
   inkscape:window-maximized="0"
   inkscape:current-layer="layer1" />
<style
   type="text/css"
   id="style2">
	.st0{fill:#E01E5A;}
	.st1{fill:#36C5F0;}
	.st2{fill:#2EB67D;}
	.st3{fill:#ECB22E;}
</style>
<g
   id="g42">
	
	<g
   id="g40">
		<g
   id="g20">
			<path
   class="st0"
   d="m 36.297363,117.09812 c 0,9.25556 -7.480524,16.73608 -16.736084,16.73608 -9.255563,0 -16.7360852,-7.48052 -16.7360852,-16.73608 0,-9.25556 7.4805222,-16.7361 16.7360852,-16.7361 h 16.736084 z"
   id="path16"
   style="fill:#ecb22e;fill-opacity:1;stroke-width:1.26788" />
			<path
   class="st0"
   d="m 44.665405,117.09812 c 0,-9.25556 7.480523,-16.7361 16.736084,-16.7361 9.255562,0 16.736086,7.48054 16.736086,16.7361 v 41.84021 c 0,9.25556 -7.480524,16.73607 -16.736086,16.73607 -9.255561,0 -16.736084,-7.48051 -16.736084,-16.73607 z"
   id="path18"
   style="fill:#ecb22e;fill-opacity:1;stroke-width:1.26788" />
		</g>
		<g
   id="g26"
   transform="matrix(1.2678852,0,0,1.2678852,-76.797991,-62.941585)">
			<path
   class="st1"
   d="m 109,89 c -7.3,0 -13.2,-5.9 -13.2,-13.2 0,-7.3 5.9,-13.2 13.2,-13.2 7.3,0 13.2,5.9 13.2,13.2 V 89 Z"
   id="path22"
   style="fill:#097eff;fill-opacity:1" />
			<path
   class="st1"
   d="m 109,95.7 c 7.3,0 13.2,5.9 13.2,13.2 0,7.3 -5.9,13.2 -13.2,13.2 H 75.9 c -7.3,0 -13.2,-5.9 -13.2,-13.2 0,-7.3 5.9,-13.2 13.2,-13.2 z"
   id="path24"
   style="fill:#097eff;fill-opacity:1" />
		</g>
		<g
   id="g32"
   transform="matrix(1.2678852,0,0,1.2678852,-76.797991,-62.941585)">
			<path
   class="st2"
   d="m 161.9,108.9 c 0,-7.3 5.9,-13.2 13.2,-13.2 7.3,0 13.2,5.9 13.2,13.2 0,7.3 -5.9,13.2 -13.2,13.2 h -13.2 z"
   id="path28"
   style="fill:#097eff;fill-opacity:1" />
			<path
   class="st2"
   d="m 155.3,108.9 c 0,7.3 -5.9,13.2 -13.2,13.2 -7.3,0 -13.2,-5.9 -13.2,-13.2 V 75.8 c 0,-7.3 5.9,-13.2 13.2,-13.2 7.3,0 13.2,5.9 13.2,13.2 z"
   id="path30"
   style="fill:#097eff;fill-opacity:1" />
		</g>
		<g
   id="g38"
   transform="matrix(1.2678852,0,0,1.2678852,-76.797991,-62.941585)">
			<path
   class="st3"
   d="m 142.1,161.8 c 7.3,0 13.2,5.9 13.2,13.2 0,7.3 -5.9,13.2 -13.2,13.2 -7.3,0 -13.2,-5.9 -13.2,-13.2 v -13.2 z"
   id="path34" />
			<path
   class="st3"
   d="m 142.1,155.2 c -7.3,0 -13.2,-5.9 -13.2,-13.2 0,-7.3 5.9,-13.2 13.2,-13.2 h 33.1 c 7.3,0 13.2,5.9 13.2,13.2 0,7.3 -5.9,13.2 -13.2,13.2 z"
   id="path36" />
		</g>
	</g>
</g>
<g
   inkscape:groupmode="layer"
   id="layer1"
   inkscape:label="Layer 1"
   style="display:inline"><text
     xml:space="preserve"
     style="font-size:176.302px;line-height:1.25;font-family:'Kumbh Sans';-inkscape-font-specification:'Kumbh Sans';stroke-width:1.20204;fill:#ffffff;fill-opacity:1"
     x="195.15094"
     y="151.42496"
     id="text2119"><tspan
       sodipodi:role="line"
       id="tspan2117"
       x="195.15094"
       y="151.42496"
       style="font-size:176.302px;stroke-width:1.20204;fill:#ffffff;fill-opacity:1">relay</tspan></text></g></svg>
