<?xml version="1.0" encoding="UTF-8" standalone="no"?>
<!-- Generator: Adobe Illustrator 23.0.1, SVG Export Plug-In . SVG Version: 6.00 Build 0)  -->

<svg
   version="1.1"
   id="Layer_1"
   x="0px"
   y="0px"
   viewBox="0 0 622.29999 199.84276"
   xml:space="preserve"
   sodipodi:docname="relay_RGB.svg"
   inkscape:version="1.1.2 (1:1.1+202202050950+0a00cf5339)"
   width="622.29999"
   height="200"
   xmlns:inkscape="http://www.inkscape.org/namespaces/inkscape"
   xmlns:sodipodi="http://sodipodi.sourceforge.net/DTD/sodipodi-0.dtd"
   xmlns="http://www.w3.org/2000/svg"
   xmlns:svg="http://www.w3.org/2000/svg"><defs
   id="defs47" /><sodipodi:namedview
   id="namedview45"
   pagecolor="#ffffff"
   bordercolor="#666666"
   borderopacity="1.0"
   inkscape:pageshadow="2"
   inkscape:pageopacity="0.0"
   inkscape:pagecheckerboard="0"
   showgrid="false"
   inkscape:zoom="2.1500884"
   inkscape:cx="264.87283"
   inkscape:cy="164.1793"
   inkscape:window-width="2560"
   inkscape:window-height="1361"
   inkscape:window-x="0"
   inkscape:window-y="0"
   inkscape:window-maximized="1"
   inkscape:current-layer="g40"
   scale-x="1"
   viewbox-width="622.29999" />
<style
   type="text/css"
   id="style2">
	.st0{fill:#E01E5A;}
	.st1{fill:#36C5F0;}
	.st2{fill:#2EB67D;}
	.st3{fill:#ECB22E;}
</style>
<g
   id="g42">
	
	<g
   id="g40">
		<g
   id="g20"
   transform="matrix(1.2726756,0,0,1.2726756,-78.123189,-63.63522)">
			<path
   class="st0"
   d="m 89.2,142 c 0,7.3 -5.9,13.2 -13.2,13.2 -7.3,0 -13.2,-5.9 -13.2,-13.2 0,-7.3 5.9,-13.2 13.2,-13.2 h 13.2 z"
   id="path16" />
			<path
   class="st0"
   d="m 95.8,142 c 0,-7.3 5.9,-13.2 13.2,-13.2 7.3,0 13.2,5.9 13.2,13.2 v 33 c 0,7.3 -5.9,13.2 -13.2,13.2 -7.3,0 -13.2,-5.9 -13.2,-13.2 z"
   id="path18" />
		</g>
		<g
   id="g26"
   transform="matrix(1.2726756,0,0,1.2726756,-78.123189,-63.63522)">
			<path
   class="st1"
   d="m 109,89 c -7.3,0 -13.2,-5.9 -13.2,-13.2 0,-7.3 5.9,-13.2 13.2,-13.2 7.3,0 13.2,5.9 13.2,13.2 V 89 Z"
   id="path22" />
			<path
   class="st1"
   d="m 109,95.7 c 7.3,0 13.2,5.9 13.2,13.2 0,7.3 -5.9,13.2 -13.2,13.2 H 75.9 c -7.3,0 -13.2,-5.9 -13.2,-13.2 0,-7.3 5.9,-13.2 13.2,-13.2 z"
   id="path24" />
		</g>
		<g
   id="g32"
   transform="matrix(1.2726756,0,0,1.2726756,-78.123189,-63.63522)">
			<path
   class="st2"
   d="m 161.9,108.9 c 0,-7.3 5.9,-13.2 13.2,-13.2 7.3,0 13.2,5.9 13.2,13.2 0,7.3 -5.9,13.2 -13.2,13.2 h -13.2 z"
   id="path28" />
			<path
   class="st2"
   d="m 155.3,108.9 c 0,7.3 -5.9,13.2 -13.2,13.2 -7.3,0 -13.2,-5.9 -13.2,-13.2 V 75.8 c 0,-7.3 5.9,-13.2 13.2,-13.2 7.3,0 13.2,5.9 13.2,13.2 z"
   id="path30" />
		</g>
		<g
   id="g38"
   transform="matrix(1.2726756,0,0,1.2726756,-78.123189,-63.63522)">
			<path
   class="st3"
   d="m 142.1,161.8 c 7.3,0 13.2,5.9 13.2,13.2 0,7.3 -5.9,13.2 -13.2,13.2 -7.3,0 -13.2,-5.9 -13.2,-13.2 v -13.2 z"
   id="path34" />
			<path
   class="st3"
   d="m 142.1,155.2 c -7.3,0 -13.2,-5.9 -13.2,-13.2 0,-7.3 5.9,-13.2 13.2,-13.2 h 33.1 c 7.3,0 13.2,5.9 13.2,13.2 0,7.3 -5.9,13.2 -13.2,13.2 z"
   id="path36" />
		</g>
	</g>
</g>
<g
   inkscape:groupmode="layer"
   id="layer1"
   inkscape:label="Layer 1"
   style="display:inline"><text
     xml:space="preserve"
     style="font-size:176.968px;line-height:1.25;font-family:'Kumbh Sans';-inkscape-font-specification:'Kumbh Sans';stroke-width:1.20659"
     x="194.85326"
     y="151.54126"
     id="text2119"><tspan
       sodipodi:role="line"
       id="tspan2117"
       x="194.85326"
       y="151.54126"
       style="font-size:176.968px;stroke-width:1.20659">relay</tspan></text></g></svg>
